<svg width="70" height="70" viewBox="0 0 70 70" fill="none" xmlns="http://www.w3.org/2000/svg">
<rect width="70" height="70" rx="18" fill="#A9C6D1"/>
<mask id="mask0_2_326" style="mask-type:alpha" maskUnits="userSpaceOnUse" x="21" y="21" width="28" height="28">
<rect x="21" y="21" width="28" height="28" fill="white"/>
</mask>
<g mask="url(#mask0_2_326)">
<path d="M34.6262 34.03L32.9781 32.6274L25.4422 26.2142L25.4417 26.2138C24.8744 25.7303 24 26.133 24 26.8803V43.1233C24 43.6201 24.3895 43.9818 24.8486 44.0011H24.9203C25.0956 43.993 25.2743 43.932 25.4422 43.7894L34.6262 34.03ZM34.6262 34.03V31.8659V26.8791C34.6262 26.1317 35.5006 25.7291 36.0679 26.2125L36.0684 26.213L45.3318 34.0962C45.4627 34.2077 45.5679 34.3463 45.6401 34.5025C45.7122 34.6586 45.7496 34.8286 45.7496 35.0006C45.7496 35.1726 45.7122 35.3425 45.6401 35.4987C45.5679 35.6548 45.4627 35.7935 45.3318 35.905L36.0684 43.7882L36.0684 43.7882C35.4999 44.272 34.6262 43.8681 34.6262 43.1221V38.1378V35.9737L32.9781 37.3762L25.4427 43.7891L34.6262 34.03Z" stroke="black" stroke-width="2"/>
</g>
</svg>
