<svg width="70" height="71" viewBox="0 0 70 71" fill="none" xmlns="http://www.w3.org/2000/svg">
<rect y="0.0488281" width="70" height="70" rx="18" fill="#ECC6C6"/>
<mask id="mask0_2_349" style="mask-type:alpha" maskUnits="userSpaceOnUse" x="21" y="22" width="29" height="31">
<rect x="21" y="22.2129" width="29" height="30.6075" fill="white"/>
</mask>
<g mask="url(#mask0_2_349)">
<path d="M43.1999 36.5166V36.9862V37.5166V40.5773C43.1999 41.1408 42.9873 41.671 42.6246 42.0538C42.2636 42.4348 41.7859 42.6381 41.2999 42.6381H39.8499C39.3639 42.6381 38.8862 42.4348 38.5252 42.0538C38.1625 41.671 37.9499 41.1408 37.9499 40.5773V37.5166V36.9862V36.5166V35.9862V32.9255C37.9499 32.362 38.1625 31.8318 38.5252 31.449C38.8862 31.068 39.3639 30.8647 39.8499 30.8647H41.2999C41.7859 30.8647 42.2636 31.068 42.6246 31.449C42.9873 31.8318 43.1999 32.362 43.1999 32.9255V35.9862V36.5166ZM33.0499 36.5166V36.9862V37.5166V43.6381C33.0499 44.2015 32.8373 44.7318 32.4746 45.1146C32.1136 45.4956 31.6359 45.6989 31.1499 45.6989H29.6999C29.2139 45.6989 28.7362 45.4956 28.3752 45.1146C28.0125 44.7318 27.7999 44.2015 27.7999 43.6381V37.5166V36.9862V36.5166V35.9862V29.8647C27.7999 29.3013 28.0125 28.7711 28.3752 28.3882C28.7362 28.0072 29.2139 27.804 29.6999 27.804H31.1499C31.6359 27.804 32.1136 28.0072 32.4746 28.3882C32.8373 28.7711 33.0499 29.3013 33.0499 29.8647V35.9862V36.5166Z" stroke="black" stroke-width="2"/>
</g>
</svg>
