<svg width="107" height="35" viewBox="0 0 107 35" fill="none" xmlns="http://www.w3.org/2000/svg">
<path d="M63.8594 15.2969L57.6953 23.3828L63.8594 31H61.0469L56.3125 24.8594L51.8125 31H49.2344L55.1172 23.1484L49.2344 15.2969H52.0469L56.5 21.6953L61.0469 15.2969H63.8594ZM70.9141 19.0469C71.5859 19.0469 72.2656 19.2109 72.9531 19.5391C73.6562 19.8516 74.2578 20.2891 74.7578 20.8516V19.2812H76.6797V31H74.7578V29.0078C74.3516 29.6328 73.7969 30.1797 73.0938 30.6484C72.4062 31.1172 71.6172 31.3516 70.7266 31.3516C69.7266 31.3516 68.8125 31.1016 67.9844 30.6016C67.1562 30.0859 66.4922 29.375 65.9922 28.4688C65.5078 27.5625 65.2656 26.5156 65.2656 25.3281C65.2656 24.0312 65.5078 22.9141 65.9922 21.9766C66.4922 21.0391 67.1719 20.3203 68.0312 19.8203C68.8906 19.3047 69.8516 19.0469 70.9141 19.0469ZM71.2656 20.9219C70.4219 20.9219 69.7031 21.1328 69.1094 21.5547C68.5156 21.9766 68.0547 22.5234 67.7266 23.1953C67.4141 23.8516 67.2578 24.5625 67.2578 25.3281C67.2578 26.0781 67.4141 26.7734 67.7266 27.4141C68.0391 28.0391 68.4766 28.5391 69.0391 28.9141C69.6172 29.2891 70.2812 29.4766 71.0312 29.4766C71.75 29.4766 72.3906 29.2891 72.9531 28.9141C73.5156 28.5391 73.9609 28.0234 74.2891 27.3672C74.6172 26.6953 74.7734 25.9453 74.7578 25.1172L74.7344 22.8672C74.25 22.2578 73.7266 21.7812 73.1641 21.4375C72.6172 21.0938 71.9844 20.9219 71.2656 20.9219ZM82.5859 19.2812V21.1328C82.8359 20.8203 83.1562 20.5078 83.5469 20.1953C83.9375 19.8672 84.375 19.5938 84.8594 19.375C85.3594 19.1562 85.875 19.0469 86.4062 19.0469C87.2031 19.0469 87.9297 19.2266 88.5859 19.5859C89.2422 19.9297 89.7656 20.4609 90.1562 21.1797C90.5469 21.8828 90.7422 22.7734 90.7422 23.8516V31H88.8203L88.7969 24.0391C88.7969 23.0234 88.5703 22.25 88.1172 21.7188C87.6797 21.1875 87 20.9219 86.0781 20.9219C85.4531 20.9219 84.8281 21.1562 84.2031 21.625C83.5938 22.0781 83.0547 22.6094 82.5859 23.2188V31H80.6641V19.2812H82.5859ZM99.2031 19.0469C99.875 19.0469 100.555 19.2109 101.242 19.5391C101.945 19.8516 102.547 20.2891 103.047 20.8516V19.2812H104.969V31H103.047V29.0078C102.641 29.6328 102.086 30.1797 101.383 30.6484C100.695 31.1172 99.9062 31.3516 99.0156 31.3516C98.0156 31.3516 97.1016 31.1016 96.2734 30.6016C95.4453 30.0859 94.7812 29.375 94.2812 28.4688C93.7969 27.5625 93.5547 26.5156 93.5547 25.3281C93.5547 24.0312 93.7969 22.9141 94.2812 21.9766C94.7812 21.0391 95.4609 20.3203 96.3203 19.8203C97.1797 19.3047 98.1406 19.0469 99.2031 19.0469ZM99.5547 20.9219C98.7109 20.9219 97.9922 21.1328 97.3984 21.5547C96.8047 21.9766 96.3438 22.5234 96.0156 23.1953C95.7031 23.8516 95.5469 24.5625 95.5469 25.3281C95.5469 26.0781 95.7031 26.7734 96.0156 27.4141C96.3281 28.0391 96.7656 28.5391 97.3281 28.9141C97.9062 29.2891 98.5703 29.4766 99.3203 29.4766C100.039 29.4766 100.68 29.2891 101.242 28.9141C101.805 28.5391 102.25 28.0234 102.578 27.3672C102.906 26.6953 103.062 25.9453 103.047 25.1172L103.023 22.8672C102.539 22.2578 102.016 21.7812 101.453 21.4375C100.906 21.0938 100.273 20.9219 99.5547 20.9219Z" fill="black"/>
<path fill-rule="evenodd" clip-rule="evenodd" d="M8.26678 0C8.74695 0 9.20747 0.18216 9.54706 0.50642L17.6064 8.20432C18.1841 8.75608 18.5108 9.52013 18.5108 10.319V11.8327C18.5108 12.6117 17.794 13.2748 17.2306 12.7368L6.9865 2.95215C6.64701 2.62779 6.4563 2.18793 6.4563 1.72929C6.4563 1.27064 6.64701 0.830779 6.9865 0.50642C7.32608 0.18216 7.7866 0 8.26678 0Z" fill="black"/>
<path fill-rule="evenodd" clip-rule="evenodd" d="M28.6199 35C28.1398 35 27.6792 34.8178 27.3397 34.4936L19.2803 26.7957C18.7027 26.2439 18.3759 25.4799 18.3759 24.681V23.1673C18.3759 22.3883 19.0927 21.7252 19.6562 22.2632L29.9002 32.0478C30.2397 32.3722 30.4304 32.8121 30.4304 33.2707C30.4304 33.7294 30.2397 34.1692 29.9002 34.4936C29.5606 34.8178 29.1001 35 28.6199 35Z" fill="black"/>
<path d="M-7.67777e-08 7.63654C-9.77669e-08 8.09383 0.191276 8.5324 0.531765 8.8558L9.52206 17.3924L0.531764 25.9289C0.200925 26.2542 0.0178593 26.6898 0.0219974 27.142C0.0261354 27.5941 0.217146 28.0267 0.553888 28.3464C0.89063 28.6662 1.34616 28.8475 1.82237 28.8515C2.29858 28.8554 2.75736 28.6816 3.0999 28.3674L13.3743 18.6116C13.7148 18.2882 13.906 17.8496 13.906 17.3924C13.906 16.9351 13.7148 16.4965 13.3743 16.1731L3.0999 6.41728C2.75931 6.09398 2.29743 5.91235 1.81583 5.91235C1.33424 5.91235 0.872357 6.09398 0.531765 6.41728C0.191276 6.74068 -5.57885e-08 7.17925 -7.67777e-08 7.63654Z" fill="black"/>
<path d="M37 7.6363C37 8.09359 36.8087 8.53216 36.4682 8.85556L27.4779 17.3921L36.4682 25.9287C36.799 26.2539 36.9821 26.6895 36.978 27.1417C36.9738 27.5939 36.7828 28.0264 36.4461 28.3462C36.1093 28.6659 35.6538 28.8473 35.1776 28.8512C34.7014 28.8552 34.2426 28.6813 33.9001 28.3672L23.6257 18.6114C23.2852 18.288 23.0939 17.8494 23.0939 17.3921C23.0939 16.9348 23.2852 16.4963 23.6257 16.1729L33.9001 6.41704C34.2407 6.09373 34.7025 5.91211 35.1841 5.91211C35.6657 5.91211 36.1276 6.09373 36.4682 6.41704C36.8087 6.74044 37 7.17901 37 7.6363Z" fill="black"/>
</svg>
