<svg width="74" height="71" viewBox="0 0 74 71" fill="none" xmlns="http://www.w3.org/2000/svg">
<g clip-path="url(#clip0_2_503)">
<rect opacity="0.579329" x="8.93677" y="22.3328" width="13" height="63.5324" transform="rotate(-45 8.93677 22.3328)" fill="#A9C6D1"/>
<rect x="9.93677" y="17.3328" width="13" height="63.5324" transform="rotate(-45 9.93677 17.3328)" stroke="black" stroke-linejoin="round"/>
<path d="M40.5 24.5L47.5844 17.3411C47.5844 17.3411 44.2847 7.67407 49.3915 3.24826C54.4983 -1.17755 66.3823 1.04996 66.3823 1.04996L58.1323 10.0436L62.5668 15.0244L71.9794 5.7188C71.9794 5.7188 75.4092 19.6619 68.9456 24.5C62.4819 29.338 55.7053 25.432 55.7053 25.432L48.5546 32.5386" stroke="black" stroke-linecap="round"/>
<path d="M33.1685 46.3428L26.084 53.5017C26.084 53.5017 29.3837 63.1687 24.2769 67.5945C19.1701 72.0203 7.28621 69.7928 7.28621 69.7928L15.5361 60.7991L11.1017 55.8184L1.68902 65.124C1.68902 65.124 -1.74077 51.1809 4.72288 46.3428C11.1865 41.5047 17.9632 45.4107 17.9632 45.4107L25.1139 38.3042" stroke="black" stroke-linecap="round"/>
</g>
<defs>
<clipPath id="clip0_2_503">
<rect width="72.6684" height="70.2344" fill="white" transform="translate(0.5 0.304199)"/>
</clipPath>
</defs>
</svg>
