<svg width="37" height="35" viewBox="0 0 37 35" fill="none" xmlns="http://www.w3.org/2000/svg">
<path fill-rule="evenodd" clip-rule="evenodd" d="M8.26678 0C8.74695 0 9.20747 0.18216 9.54706 0.50642L17.6064 8.20432C18.1841 8.75608 18.5108 9.52013 18.5108 10.319V11.8327C18.5108 12.6117 17.794 13.2748 17.2306 12.7368L6.9865 2.95215C6.64701 2.62779 6.4563 2.18793 6.4563 1.72929C6.4563 1.27064 6.64701 0.830779 6.9865 0.50642C7.32608 0.18216 7.7866 0 8.26678 0Z" fill="black"/>
<path fill-rule="evenodd" clip-rule="evenodd" d="M28.6199 35C28.1398 35 27.6792 34.8178 27.3397 34.4936L19.2803 26.7957C18.7027 26.2439 18.3759 25.4799 18.3759 24.681V23.1673C18.3759 22.3883 19.0927 21.7252 19.6562 22.2632L29.9002 32.0478C30.2397 32.3722 30.4304 32.8121 30.4304 33.2707C30.4304 33.7294 30.2397 34.1692 29.9002 34.4936C29.5606 34.8178 29.1001 35 28.6199 35Z" fill="black"/>
<path d="M-7.67777e-08 7.63654C-9.77669e-08 8.09383 0.191276 8.5324 0.531765 8.8558L9.52206 17.3924L0.531764 25.9289C0.200925 26.2542 0.0178593 26.6898 0.0219974 27.142C0.0261354 27.5941 0.217146 28.0267 0.553888 28.3464C0.89063 28.6662 1.34616 28.8475 1.82237 28.8515C2.29858 28.8554 2.75736 28.6816 3.0999 28.3674L13.3743 18.6116C13.7148 18.2882 13.906 17.8496 13.906 17.3924C13.906 16.9351 13.7148 16.4965 13.3743 16.1731L3.0999 6.41728C2.75931 6.09398 2.29743 5.91235 1.81583 5.91235C1.33424 5.91235 0.872357 6.09398 0.531765 6.41728C0.191276 6.74068 -5.57885e-08 7.17925 -7.67777e-08 7.63654Z" fill="black"/>
<path d="M37 7.6363C37 8.09359 36.8087 8.53216 36.4682 8.85556L27.4779 17.3921L36.4682 25.9287C36.799 26.2539 36.9821 26.6895 36.978 27.1417C36.9738 27.5939 36.7828 28.0264 36.4461 28.3462C36.1093 28.6659 35.6538 28.8473 35.1776 28.8512C34.7014 28.8552 34.2426 28.6813 33.9001 28.3672L23.6257 18.6114C23.2852 18.288 23.0939 17.8494 23.0939 17.3921C23.0939 16.9348 23.2852 16.4963 23.6257 16.1729L33.9001 6.41704C34.2407 6.09373 34.7025 5.91211 35.1841 5.91211C35.6657 5.91211 36.1276 6.09373 36.4682 6.41704C36.8087 6.74044 37 7.17901 37 7.6363Z" fill="black"/>
</svg>
